/* XPM */
static char * bitcoin32_xpm[] = {
"32 32 257 2",
"  	c None",
". 	c #D5C110",
"+ 	c #8A7A09",
"@ 	c #428EE3",
"# 	c #F9F9F7",
"$ 	c #E95D66",
"% 	c #D9C949",
"& 	c #A29B5B",
"* 	c #FEE315",
"= 	c #E3A72A",
"- 	c #EDCF19",
"; 	c #FAE440",
"> 	c #FDE31A",
", 	c #C5C096",
"' 	c #C4B53A",
") 	c #FDE41A",
"! 	c #EDD517",
"~ 	c #FFEE12",
"{ 	c #A79C37",
"] 	c #C2BD94",
"^ 	c #EB6363",
"/ 	c #ED6066",
"( 	c #4694EC",
"_ 	c #F2D31B",
": 	c #D4C533",
"< 	c #D36454",
"[ 	c #3E87DA",
"} 	c #FDE41C",
"| 	c #EDD32F",
"1 	c #D7DCDA",
"2 	c #FFEC2E",
"3 	c #295A93",
"4 	c #E6E4D7",
"5 	c #897D17",
"6 	c #4699F8",
"7 	c #A4972A",
"8 	c #294D70",
"9 	c #DFCE13",
"0 	c #1E426A",
"a 	c #4A9BF6",
"b 	c #DCDAC5",
"c 	c #3A6486",
"d 	c #EC6363",
"e 	c #304F62",
"f 	c #E29835",
"g 	c #3A80D0",
"h 	c #FFE524",
"i 	c #DA5961",
"j 	c #C4AA0C",
"k 	c #EBC322",
"l 	c #F8EA67",
"m 	c #D15160",
"n 	c #502C1E",
"o 	c #ECBE22",
"p 	c #2C64A5",
"q 	c #AEBBC4",
"r 	c #CDCAAC",
"s 	c #D46A52",
"t 	c #6E723C",
"u 	c #122A45",
"v 	c #FFE20E",
"w 	c #0D1000",
"x 	c #A59209",
"y 	c #BDA611",
"z 	c #D0CEB8",
"A 	c #BDAF2F",
"B 	c #E45A66",
"C 	c #D7CB58",
"D 	c #377BC9",
"E 	c #D1CEAE",
"F 	c #E1DEC9",
"G 	c #D78341",
"H 	c #AEAA58",
"I 	c #FDDB12",
"J 	c #ED6464",
"K 	c #275384",
"L 	c #367AC7",
"M 	c #B49D09",
"N 	c #92893C",
"O 	c #E25965",
"P 	c #FFE717",
"Q 	c #F4DC14",
"R 	c #C58954",
"S 	c #BDB361",
"T 	c #3477C3",
"U 	c #C3B647",
"V 	c #ADA66E",
"W 	c #D6BF2A",
"X 	c #2D6098",
"Y 	c #D2724C",
"Z 	c #DA9239",
"` 	c #FAE119",
" .	c #D7D4B9",
"..	c #3B7FCC",
"+.	c #D0CDB2",
"@.	c #C7BD76",
"#.	c #B7C1C5",
"$.	c #326AA9",
"%.	c #C1B769",
"&.	c #DC9A34",
"*.	c #71899A",
"=.	c #E4B42D",
"-.	c #E8BD26",
";.	c #BAB586",
">.	c #DEA133",
",.	c #FFF168",
"'.	c #FBDC1C",
").	c #DA8D3C",
"!.	c #9D922C",
"~.	c #295F9E",
"{.	c #FFEC26",
"].	c #BFBA8D",
"^.	c #E4CD30",
"/.	c #2D66A9",
"(.	c #9A9149",
"_.	c #499FFC",
":.	c #C7B94D",
"<.	c #F2CC21",
"[.	c #BDB25E",
"}.	c #FFF046",
"|.	c #EFEEE6",
"1.	c #D8D6BC",
"2.	c #E0D254",
"3.	c #F6F5EE",
"4.	c #FFE80C",
"5.	c #BF5654",
"6.	c #95A6B2",
"7.	c #C9C6A9",
"8.	c #C0B560",
"9.	c #C2B86B",
"0.	c #E55B65",
"a.	c #4796EF",
"b.	c #E2E0CE",
"c.	c #E6B324",
"d.	c #B7B181",
"e.	c #C8C5A6",
"f.	c #4DA0FE",
"g.	c #F4D122",
"h.	c #96A5AD",
"i.	c #FFED34",
"j.	c #FFE51C",
"k.	c #365E81",
"l.	c #899DAD",
"m.	c #7D97B3",
"n.	c #D0BE37",
"o.	c #D8C337",
"p.	c #4390E7",
"q.	c #3F89DD",
"r.	c #355F8F",
"s.	c #9F9653",
"t.	c #486D93",
"u.	c #8D801C",
"v.	c #B9B48A",
"w.	c #3172BB",
"x.	c #EC6463",
"y.	c #09264E",
"z.	c #B4B07B",
"A.	c #3C6888",
"B.	c #3B83D5",
"C.	c #FFEE3D",
"D.	c #9D8B09",
"E.	c #3A6688",
"F.	c #E6E9E9",
"G.	c #8DA3B7",
"H.	c #7991A3",
"I.	c #BDB150",
"J.	c #FFE31C",
"K.	c #4492E9",
"L.	c #FFE71E",
"M.	c #FFEF42",
"N.	c #183453",
"O.	c #D96F52",
"P.	c #37618E",
"Q.	c #E6E8E7",
"R.	c #E05066",
"S.	c #F7E437",
"T.	c #FAE84B",
"U.	c #325E90",
"V.	c #263E4E",
"W.	c #DADFE0",
"X.	c #CBB70E",
"Y.	c #CD8B36",
"Z.	c #C59721",
"`.	c #B1AF6F",
" +	c #F7DE1A",
".+	c #F8D411",
"++	c #DF9642",
"@+	c #FFF03B",
"#+	c #9A8F1C",
"$+	c #9E901B",
"%+	c #DD8A5E",
"&+	c #8D8221",
"*+	c #3978C0",
"=+	c #858336",
"-+	c #D87C48",
";+	c #DEC420",
">+	c #CFA543",
",+	c #336DAF",
"'+	c #D5A844",
")+	c #EA6464",
"!+	c #DBD8C0",
"~+	c #D65760",
"{+	c #1F384C",
"]+	c #BFB048",
"^+	c #BFBA94",
"/+	c #E4C716",
"(+	c #E3C61D",
"_+	c #EACB16",
":+	c #74680B",
"<+	c #D9CB38",
"[+	c #F0EEE3",
"}+	c #E6B928",
"|+	c #BFB86F",
"1+	c #FFDF0B",
"2+	c #FFEE18",
"3+	c #D3C53F",
"4+	c #D7C83E",
"5+	c #2F4C5D",
"6+	c #DBC63A",
"7+	c #FFF255",
"8+	c #A09F72",
"9+	c #C9C59F",
"0+	c #EBD337",
"a+	c #BD921E",
"b+	c #DF5A5F",
"c+	c #917F02",
"d+	c #E0DECC",
"e+	c #295FA1",
"f+	c #D0B71C",
"g+	c #E85C62",
"h+	c #DA7251",
"i+	c #4189DA",
"j+	c #C9BC60",
"k+	c #CFB92F",
"l+	c #F6D95D",
"m+	c #2D69AF",
"n+	c #E4E7E5",
"o+	c #EFEFE8",
"p+	c #193B65",
"q+	c #E5D02B",
"r+	c #D47645",
"s+	c #A99512",
"t+	c #D37D43",
"u+	c #D79537",
"v+	c #2E6AB0",
"w+	c #918206",
"x+	c #94850E",
"y+	c #9A8C07",
"z+	c #D4D1B7",
"A+	c #DAE0E0",
"B+	c #A39415",
"C+	c #A1921F",
"D+	c #F6DA31",
"E+	c #AE9D15",
"F+	c #E05269",
"G+	c #F3DD4D",
"H+	c #FFFFFF",
"                      [+E z.& (.(.s.z.E [+                      ",
"                  E (.&+{ :.% 2.2.% ' { u.(.r                   ",
"              !+N !.C l 7+M.i.2 2 2 @+}.T.4+$+=+!+              ",
"            d.u.C ,.C.L.) ) ) } ) } ) ) h i.M.<++ d.            ",
"        # s.7 l M.) > } } } } } } } } } } ) ) 2 S.B+& #         ",
"        & { ,.2 * } } } } } L.L.j.L.> } } } } > L.2 E+&         ",
"      ;.7 ,.h ` > > } > > P ! '. +! j.> > > } > > j.{.y+;.      ",
"    b.5 l {.* J.` J.> L.2+9 w x+:+n Q 2+P ) > J.` P 2+` + F     ",
"    N % ; c.<.* > P ` }+>.Y.n y s+n u+>.}+` P ` P <.=.Q . =+    ",
"  1.#+l+s m 5.k ~ -.Y i O $ )+O.h+)+B O i Y }+~ <.5.m s k y+ .  ",
"  s.3+%+R.Z k o Z ~+$ J d d J $ / J d d J $ i Y.k -.&.F+-+X.s.  ",
"3.&+G+O.0.t+>.s O J ^ ^ ^ ^ ^ d d ^ ^ ^ ^ ^ J B s >.G $ < /+5 3.",
"!+C+C.r+/ 0.O / x.^ ^ ^ ^ ^ J 0.0.J ^ ^ ^ ^ ^ x.^ F+$ $ Y .+D.1.",
"].A 2+c.~+/ J d d d d J / $ ~+).).i $ J d d d d d J / F+= * M ].",
"V k+h v = < b+0.B B O i < G Z.+ w+a+).< i O B B g+b+< >.v I j & ",
"& o.J.1+4.'.>+%+f = = =.g.4.4.c++ 4.v .+o = f ++R '+I 4.1+I j & ",
"& f+h 6+n.A `.H : : : %.I.n.o.^.6+: h ^.3+9 <+A z.{ n.' | I j & ",
"V f+0+v.z e., , r z v.|.d.7.e.r z e.U , 7.^+r 9+E ].+.z |+'.M `.",
"] y | r +.b.1.z 4 r r b ] o+^+b.r 4 { b 9+r d+1.b.z+b.z+9+(+x ] ",
"F D.D+S [.9.9.9.%.S [.8.8.j+8.%.[.9.% :.@.]+@.I.S 9.%.S 8.;+c+F ",
"# 5 _+- - _+- _+- - - ! t =+- ! _ . t !.! - - - - _+- - - j 5 3.",
"  8+k.E.c c c c c c c A.V.y.V.e 5+{+y.8 A.c c c c c c c E.k.8+  ",
"  1 e+6 6 6 6 6 6 6 6 a K u u 0 p+u u v+_.6 6 6 6 6 6 6 6 e+1   ",
"    *.g f.a a a a a a f.K N.,+a ( X u $.f.a a a a a a f.g *.    ",
"    Q.U.@ a.( ( ( ( ( a.*+i+a ( a.6 ....a.( ( ( ( ( a.@ U.n+    ",
"      #.~.@ @ @ @ @ @ @ K.p.@ @ @ @ p.p.@ @ @ @ @ p.@ ~.#.      ",
"        h.~.[ q.[ [ [ [ [ [ [ [ [ [ [ [ [ [ [ [ q.B.e+h.        ",
"          6.3 D B.B.g g g g g g g g g g g g g B.D ~.h.          ",
"            #.P.m+L D L L L L L L L L L D D L v+r.#.            ",
"              F.H.3 /.w.T T T T T T T T w./.3 H.Q.              ",
"                  A+l.t.3 ~.p p /.p ~.3 t.l.W.                  ",
"                      # 1 q G.m.m.G.q 1 3.                      "};
