/* XPM */
static char * bitcoin16_xpm[] = {
"16 16 201 2",
"  	c None",
". 	c #4593EA",
"+ 	c #3C90F7",
"@ 	c #FFED1B",
"# 	c #4697F1",
"$ 	c #E85967",
"% 	c #909955",
"& 	c #FFEC17",
"* 	c #3377C6",
"= 	c #3172BD",
"- 	c #EA5A66",
"; 	c #4A77A8",
"> 	c #EFEDE2",
", 	c #3C84D5",
"' 	c #3C86DB",
") 	c #3579C7",
"! 	c #DC6A54",
"~ 	c #B6C2C8",
"{ 	c #3D94FF",
"] 	c #3C85D7",
"^ 	c #5179A3",
"/ 	c #3D86D8",
"( 	c #527AA4",
"_ 	c #3B82D4",
": 	c #DE9936",
"< 	c #FEE516",
"[ 	c #D6C981",
"} 	c #D7CA83",
"| 	c #A96038",
"1 	c #D9CE92",
"2 	c #909A56",
"3 	c #ED5B68",
"4 	c #EC5B69",
"5 	c #FFE61A",
"6 	c #F2616A",
"7 	c #A3980D",
"8 	c #E69B3C",
"9 	c #3477C5",
"0 	c #D5CA6E",
"a 	c #817F30",
"b 	c #4796F0",
"c 	c #194276",
"d 	c #DF8244",
"e 	c #F3616A",
"f 	c #FFED2D",
"g 	c #B4A842",
"h 	c #D0C874",
"i 	c #C5C095",
"j 	c #EE5F67",
"k 	c #FFE619",
"l 	c #C8C593",
"m 	c #EC5D66",
"n 	c #F1F2F0",
"o 	c #D4CA72",
"p 	c #BA9C0A",
"q 	c #DED28C",
"r 	c #DBCE8B",
"s 	c #E6CF52",
"t 	c #3C91F8",
"u 	c #B5AD54",
"v 	c #FFEF20",
"w 	c #D67A54",
"x 	c #3C8FF5",
"y 	c #D9CE8C",
"z 	c #B7AF64",
"A 	c #FFE816",
"B 	c #EABA24",
"C 	c #BAB260",
"D 	c #E27948",
"E 	c #CEC777",
"F 	c #B69A0B",
"G 	c #FEE518",
"H 	c #D8CD88",
"I 	c #EB5D67",
"J 	c #F7DC1A",
"K 	c #9AACB5",
"L 	c #B8B179",
"M 	c #F1F0E7",
"N 	c #CFCB81",
"O 	c #BFBF84",
"P 	c #F6DA1A",
"Q 	c #B7B172",
"R 	c #ECAF25",
"S 	c #E1CD24",
"T 	c #4078BB",
"U 	c #E9A631",
"V 	c #535F43",
"W 	c #CFC78D",
"X 	c #E15A60",
"Y 	c #8D9757",
"Z 	c #B1A235",
"` 	c #1D4A82",
" .	c #BFB134",
"..	c #CABF6C",
"+.	c #4695ED",
"@.	c #1C4E8E",
"#.	c #E25A64",
"$.	c #B7A121",
"%.	c #A99925",
"&.	c #DCC543",
"*.	c #D8CD91",
"=.	c #E9D615",
"-.	c #E9A04C",
";.	c #DDD14E",
">.	c #B7AE5F",
",.	c #E9D137",
"'.	c #B5C1C8",
").	c #FFEF1C",
"!.	c #E8D54B",
"~.	c #E1D145",
"{.	c #F1F0E6",
"].	c #7F99B1",
"^.	c #C8C49A",
"/.	c #D2CC6D",
"(.	c #E17055",
"_.	c #3B82D5",
":.	c #3477C4",
"<.	c #919954",
"[.	c #E26F56",
"}.	c #3D94FE",
"|.	c #B4A840",
"1.	c #C7C295",
"2.	c #A5990D",
"3.	c #B4A856",
"4.	c #E0784A",
"5.	c #B5C1C7",
"6.	c #EBBD26",
"7.	c #C9C697",
"8.	c #4492E8",
"9.	c #FFEB30",
"0.	c #CFCA79",
"a.	c #D6724C",
"b.	c #D67954",
"c.	c #CFCB76",
"d.	c #7B7A31",
"e.	c #FFEF2E",
"f.	c #F2F4F4",
"g.	c #3D93FB",
"h.	c #DE6756",
"i.	c #E3D63E",
"j.	c #7F99B0",
"k.	c #DE6958",
"l.	c #C7C49F",
"m.	c #9AABB5",
"n.	c #EEAB2C",
"o.	c #929C56",
"p.	c #DE9837",
"q.	c #B8C3C5",
"r.	c #909B57",
"s.	c #879052",
"t.	c #E85B66",
"u.	c #C1C187",
"v.	c #EEDD42",
"w.	c #D48F34",
"x.	c #FFEC36",
"y.	c #3D86D9",
"z.	c #BBAE5A",
"A.	c #596647",
"B.	c #DDD08B",
"C.	c #DDD189",
"D.	c #E79D3B",
"E.	c #FFE71B",
"F.	c #FFEE25",
"G.	c #FFE10D",
"H.	c #8F9753",
"I.	c #C9C5A0",
"J.	c #3F87D7",
"K.	c #E75A67",
"L.	c #ED5F67",
"M.	c #FFE719",
"N.	c #EAAF24",
"O.	c #3F87D8",
"P.	c #D3CD78",
"Q.	c #F1BC39",
"R.	c #EFDB16",
"S.	c #C5C092",
"T.	c #E89D3E",
"U.	c #FFED2E",
"V.	c #DD6955",
"W.	c #AA9924",
"X.	c #3D85D7",
"Y.	c #AA6138",
"Z.	c #B4C0C7",
"`.	c #C4BF92",
" +	c #C6C195",
".+	c #E5873E",
"++	c #DA9B51",
"@+	c #EAB229",
"#+	c #B3A22F",
"$+	c #B9A840",
"%+	c #D9764B",
"&+	c #4078BC",
"*+	c #F2F3F0",
"=+	c #B7C2C4",
"-+	c #F2F3F3",
";+	c #EEDC32",
">+	c #909956",
",+	c #1F5599",
"'+	c #E3D116",
")+	c #BEB348",
"!+	c #FFFFFF",
"        >  +z g |.>.S.>         ",
"      i )+v.x.U.f 9.;+ .`.      ",
"    L ~.e.M.k @ @ 5 E.F.S Q     ",
"  ^.i.v < & =.7 2.R.& G ).'+1.  ",
"M $+-.B J D.a.| Y.%+8 P 6.T.$.{.",
"7.++h.p.(.$ j e 6 L.$ [.: k.w.l ",
"C Q.X - 4 m t.V.! K.I 3 - #.@+u ",
"Z A N.w D d U p F n..+4.b.R G.%.",
"#+!.0.O h N c.o 0 ;./.E u.P.,.W.",
"z.s *.q r [ W y H ..} B.C.1 &.3.",
"I.H.2 >+% Y V a d.A.o.<.% r.s.l.",
"*+T { + t x c ,+@.` g.+ + }.&+n ",
"  q._ # . 8.O.b +.J.. . # _.=+  ",
"    K :.' X.y., , / ] ' 9 m.    ",
"      ~ ; = * ) ) * = ; 5.      ",
"        f.'.].( ^ j.Z.-+        "};
