/* XPM */
static char * bitcoin64_xpm[] = {
"64 64 257 2",
"  	c None",
". 	c #EB6363",
"+ 	c #030300",
"@ 	c #ECD553",
"# 	c #5B7B97",
"$ 	c #C8515C",
"% 	c #E6E9E9",
"& 	c #CBC7A4",
"* 	c #ABA468",
"= 	c #FDE41D",
"- 	c #FDE21A",
"; 	c #D95861",
"> 	c #FEDD11",
", 	c #7A92A5",
"' 	c #C5B952",
") 	c #F7E558",
"! 	c #3374BD",
"~ 	c #D8D5B9",
"{ 	c #E5B825",
"] 	c #FEE214",
"^ 	c #173251",
"/ 	c #B4A843",
"( 	c #83781D",
"_ 	c #FFF476",
": 	c #E7C911",
"< 	c #E8E6D6",
"[ 	c #BC6448",
"} 	c #BCB788",
"| 	c #908738",
"1 	c #887A0A",
"2 	c #BB5353",
"3 	c #F0C615",
"4 	c #CB853A",
"5 	c #F8E866",
"6 	c #97A9B5",
"7 	c #FFEA14",
"8 	c #2D65A3",
"9 	c #AA991A",
"0 	c #FFE62A",
"a 	c #716503",
"b 	c #E3C40D",
"c 	c #142B45",
"d 	c #4C9EFA",
"e 	c #C7C29B",
"f 	c #968B2E",
"g 	c #418CE1",
"h 	c #B3AC75",
"i 	c #FEE523",
"j 	c #397FCE",
"k 	c #FEDC0C",
"l 	c #958C41",
"m 	c #E15C62",
"n 	c #B9AA33",
"o 	c #ECCB0A",
"p 	c #FFF46A",
"q 	c #978919",
"r 	c #8D8432",
"s 	c #FEE419",
"t 	c #DBCC59",
"u 	c #BB4B59",
"v 	c #EE6464",
"w 	c #DDA82B",
"x 	c #FFFFFF",
"y 	c #867D26",
"z 	c #6E6300",
"A 	c #95850A",
"B 	c #4A5E57",
"C 	c #FFF67F",
"D 	c #BD5D4E",
"E 	c #FFE30F",
"F 	c #FEEA3C",
"G 	c #C06B44",
"H 	c #C37444",
"I 	c #F3F2E9",
"J 	c #A29A57",
"K 	c #FFEA44",
"L 	c #235085",
"M 	c #375C77",
"N 	c #999148",
"O 	c #25548A",
"P 	c #4390E5",
"Q 	c #30454B",
"R 	c #4593EA",
"S 	c #DDDAC3",
"T 	c #A8940B",
"U 	c #3F89DC",
"V 	c #499AF5",
"W 	c #7F7415",
"X 	c #353005",
"Y 	c #3D86D7",
"Z 	c #879DB0",
"` 	c #275B9A",
" .	c #FFE82E",
"..	c #3B82D3",
"+.	c #FEE934",
"@.	c #4796EE",
"#.	c #A79A28",
"$.	c #FEEB4F",
"%.	c #40658D",
"&.	c #E3D460",
"*.	c #EDC51F",
"=.	c #D1545F",
"-.	c #DAC315",
";.	c #FDE31B",
">.	c #A39835",
",.	c #214E83",
"'.	c #BBC6CA",
").	c #4998F2",
"!.	c #F1D011",
"~.	c #9A9032",
"{.	c #C6B73E",
"].	c #022256",
"^.	c #CF8C4F",
"/.	c #1E4169",
"(.	c #C77D3D",
"_.	c #3476C1",
":.	c #3679C6",
"<.	c #377CCA",
"[.	c #FFF148",
"}.	c #FADC1A",
"|.	c #9C9450",
"1.	c #DABA09",
"2.	c #EC6363",
"3.	c #D3BA15",
"4.	c #BCB04A",
"5.	c #C4A909",
"6.	c #162F4C",
"7.	c #D59832",
"8.	c #295C95",
"9.	c #544B08",
"0.	c #D08E37",
"a.	c #1B4F91",
"b.	c #345D89",
"c.	c #D8C739",
"d.	c #FDE118",
"e.	c #EAD016",
"f.	c #F6F5EF",
"g.	c #C3BE94",
"h.	c #C24F5A",
"i.	c #FAF9F5",
"j.	c #8B812B",
"k.	c #FFF05C",
"l.	c #756803",
"m.	c #4EA2FE",
"n.	c #F4D41A",
"o.	c #A1B0B9",
"p.	c #E9D037",
"q.	c #B7B17E",
"r.	c #FFE91B",
"s.	c #F7EB75",
"t.	c #AAB8C2",
"u.	c #796D05",
"v.	c #FEE743",
"w.	c #D1CDAC",
"x.	c #FDE630",
"y.	c #F5DA1C",
"z.	c #CEB30B",
"A.	c #EA6164",
"B.	c #ADA772",
"C.	c #FFEB26",
"D.	c #D99E2A",
"E.	c #FDDE25",
"F.	c #E0DEC8",
"G.	c #3D5C6C",
"H.	c #3C80CC",
"I.	c #AB9F3B",
"J.	c #C4B327",
"K.	c #FBDF16",
"L.	c #D6C549",
"M.	c #326FB4",
"N.	c #1B3A5D",
"O.	c #204774",
"P.	c #3979C1",
"Q.	c #F1CF0E",
"R.	c #86512D",
"S.	c #FCFCFA",
"T.	c #EB6264",
"U.	c #879797",
"V.	c #D7DDDF",
"W.	c #A09536",
"X.	c #EFEEE2",
"Y.	c #BCA80F",
"Z.	c #E3E0CC",
"`.	c #B69F0A",
" +	c #4797F1",
".+	c #102D51",
"++	c #766B0B",
"@+	c #2A5F9B",
"#+	c #F5D814",
"$+	c #E65F63",
"%+	c #E86163",
"&+	c #EA6263",
"*+	c #8B7E15",
"=+	c #FAFAF8",
"-+	c #FEE317",
";+	c #CEC153",
">+	c #AFA86D",
",+	c #7B700F",
"'+	c #C66B5D",
")+	c #2A5584",
"!+	c #2F5987",
"~+	c #FEE73D",
"{+	c #F8E24C",
"]+	c #A69B37",
"^+	c #3B82D0",
"/+	c #EF6564",
"(+	c #FFE41B",
"_+	c #E0E4E3",
":+	c #39607E",
"<+	c #EA6163",
"[+	c #C8D1D5",
"}+	c #FAE51A",
"|+	c #696618",
"1+	c #FCFCFC",
"2+	c #275890",
"3+	c #A89C37",
"4+	c #9C8F23",
"5+	c #FFEE37",
"6+	c #F9D40E",
"7+	c #FAD814",
"8+	c #FFDE07",
"9+	c #2F6AAD",
"0+	c #FFF019",
"a+	c #786D13",
"b+	c #F5F7F7",
"c+	c #F7F7F1",
"d+	c #D5D1B3",
"e+	c #EC6463",
"f+	c #A04E44",
"g+	c #6B5D07",
"h+	c #646933",
"i+	c #2F4F64",
"j+	c #4088D8",
"k+	c #265182",
"l+	c #C39323",
"m+	c #E1BF05",
"n+	c #27578D",
"o+	c #FFEF2E",
"p+	c #F2D809",
"q+	c #827508",
"r+	c #9F8C08",
"s+	c #A39111",
"t+	c #B48A1E",
"u+	c #E96263",
"v+	c #4A9BF6",
"w+	c #D8C162",
"x+	c #3C83D3",
"y+	c #5B6237",
"z+	c #CDAB1E",
"A+	c #2A5A8F",
"B+	c #CBB010",
"C+	c #F4E032",
"D+	c #EB6263",
"E+	c #A8A060",
"F+	c #FADF19",
"G+	c #FCFBF9",
"H+	c #FFFFFF",
"                                                    X.S & } h * >+h } & S X.x                                                   ",
"                                            c+S q.N ( l.z z z z z z z a a ( N } ~ c+                                            ",
"                                      S.~ E+( z z l.*+q #.n {.{.{.4.n #.4+1 u.z z W E+d+S.                                      ",
"                                  S.e r z a q+#.{.s.s.C _ C _ _ p _ p _ p k.@ c.9 1 a a r e i.                                  ",
"                                & j.z l.4+;+s.C C s.k.$.K +.+.x.+.x.~+v.K $.k.k.p {+c.q l.z j.&                                 ",
"                            < >.z l.4+&.C C s.k.+.0 = }+s }+s r.}+= s r.s = i  .F $.k.k.p.9 a a N <                             ",
"                          e ,+g+q t C _ k.~+i s s = = = = = i = = = i = = = = s }+=  .F [.[.p.*+z ,+e                           ",
"                      S.* a l.{.s.C 5 ~+;.}+= = = = = = = = = = = = = = = = = = = (+s = 0 F [.K J.u.a * i.                      ",
"                    f.N z ( &.C p ~+= s = = = = = = = = = = = = = = = = = = = = = = = = = s 0 v.[.c.1 z ~.I                     ",
"                  I | z q s.C k.i -+}+= = = }+= = = }+= = = }+= = = }+= = = }+= = = }+= = = s i x.5+C+r+z r X.                  ",
"                f.| z 4+s._ $.s s ;.= ;.= ;.= ;.= ;.= ;.= ;.= ;.= ;.= ;.= ;.= ;.= ;.= ;.= ;.= s }+i 5+x.s+z r I                 ",
"              S.N z 4+_ _ F d.;.;.= ;.= ;.= ;.= ;.= ;.= ;.= ;.= ;.= ;.= ;.= ;.= ;.= ;.= ;.= ;.= ;.}+i  .0 s+z N i.              ",
"              >+z *+s.s.~+K.;.;.;.;.;.;.;.;.;.;.;.;.;.;.r.r.(+;.;.(+r.(+;.;.;.;.;.;.;.;.;.;.;.;.;.;.s = C.C+A z >+              ",
"            w.l.W 5 _ v.] ;.;.;.;.;.;.;.;.;.;.;.;.;.;.r.y.-.;.r.r.y.3.(+= ;.;.;.;.;.;.;.;.;.;.;.;.;.;.;.= C.y.1 a w.            ",
"          X.W a t _ $.d.- - - - - - - - - - - - - - r.e.X + 9.}+e.X + 9.}+s - - - - - - - - - - - - - - - ;.C.-.l.,+X.          ",
"          E+z n _ k.- -+- - - - - - - - - - - - - s 0+9 + + + e.s++ + + -.0+s -+- - - - - - - - - - - - - - - r.Y.a |.          ",
"        ~ a *+5 p i 7 7 7 s - d.- d.- d.- s 7 7 - n.y.3.X + X d.-.+ + X y.n.y.F+7 7 s d.- d.- d.- d.s 7 7 7 7 d.F+1 a d+        ",
"      x | a L._ 5+*.0.4 w }.s - - - d.}+7 - w 4 G [ D '+f+R.3.0+0+z+R.G D D D G (.w y.r.-+- - -+d.7 F+w 4 0.{ 7 s 3.a f S.      ",
"      d+a q p $.0.u =.=.$ [ n.s d.d.7 s w [ h.=.m $+<+$+%+; $ (.4 $ m m $+$+$+m ; h.[ 7.d.-+d.d.-+n.H u ; =.2 (.}.d.r+z w.      ",
"      N a L.p w u T.. =.h.u (.7 -+7 *.H u m v v v 2.2.2.v /+2.=.$ &+v e+2.2.2.2.v v m h.G *.7 -+7 0.u $ $ %+v h.(.}+3.l.l       ",
"    < a A k.w+u <+v h.7.{ [ 7.7 d.7.2 =.v v . . . . . . . . . v v 2.. . . . . . . . v v ; f+0.}.0+w [ w w 2 D+v u z+K.1 a Z.    ",
"    q.z J.p ^.=./+$+[ 7 7 7 7 *.G h.$+v . . . . . . . . . . . . . . . . . . . . . . . . v u+h.[ { 7 7 7 7 H ; /+; H K.5.z q.    ",
"  S.r u.@ $.H ; v m [ *.K.*.4 u ; v 2.. . . . . . . . . . . . . . . . . . . . . . . . . . 2./+; u (.*.}.n.[ m v $+D n.-.u.y S.  ",
"  X.a q $.v.G m v e+; D [ h.=.&+v . . . . . . . . . . . . . . . . . . . . . . . . . . . . . . v 2.; 2 [ D ; . 2.$+[ e.#+A ++<   ",
"  e z Y.k. .(.; v . v %+$+T.v 2.. . . . . . . . . . . . . . . v v . . . . . . . . . . . . . . . . v 2.m %+v . v m G 7+!.`.g+e   ",
"G+* a L.$.r.D.h.v . . 2.2.. . . . . . . . . . . . . . . . . /+m ; /+2.. . . . . . . . . . . . . . . . 2.2.. . /+$ 7.E n.z.l.E+G+",
"X.| ,+p.v.> 7+[ ; v . . . . . . . . . . . . . . . . . . v T.=.D [ $ . v . . . . . . . . . . . . . . . . . . v m D 3 ] e.-.u.r < ",
"~ ( 1 v.~+E E { u $+/+2.. . . . . . . . . . . . . 2.v v ; h.4 6+7+7.2 ; T./+v . . . . . . . . . . . . . . /+$+u w 7 > !.: 1 W ~ ",
"e a q v.x.k > E w f+=.&+v v 2.. . . . 2.2.v v v 2.m =.u H l+q+] 7 1 t+H 2 $ m T.v v v 2.2.. . . . 2.v v T.=.2 7.E > > e.: A a g.",
"q.a s+$.E.> > > E n.(.2 $ ; m <+T.T.T.%+$+m =.$ 2 [ 4 3 E 3.+ T 5.+ T 0+3 0.[ $ $ ; m $+%+u+T.T.&+$+; =.2 H 3 7 > > > !.: r+a } ",
"h z 9 K E.k > > > > E 3 D.H '+2 2 2 2 2 D G 4 D.3 7+E E > ] g++ + X k > E E > 3 w 4 H D D 2 $ 2 D '+^.l+3 > E 7+> > > !.: r+a >+",
">+a #.K E.> > k k 8+8+C.) ;+4.&.*.3 3 6+6+8+C.[.K ] k 8+k 8+E z.5.8+8+k > > > E E E > 7+3 6+3 @ w+4.;+[.8+8+k 8+k > > 6+b T a >+",
">+z 9 ~+E.6+] 0 K +.K &.r * * ~.k.+.5+F 5+K ' j.W.)  .v.K i (+5+[.F v.i k 7+>  .v.v.i ] 5+K [.;+r h |./ [.+.F v. .k > Q.b r+a * ",
"h z 9 ~+}.x.&./ ~.>.~.*+l < e 1 / ~.W.~.I.~.l Z.l f / ~.f ' ;+]+~.W.f ' v.] ) / f l ' &.]+f W.1 h < >+q / ~.W.f 4.$.k !.b r+a h ",
"} z s+x.0 t j.q.w.q.F.* j.e d+r q.w.q.S B.* x x X.E+|.d+~ |.l e g.e S r ;+5 j.B.< S N a+g.Z.~ r N w.e r g.e g.S N 4.0 o b A a q.",
"& a+A x.x.;+l x x w.x I J x c+J x x w.x S.j.Z.x J |.x d+F.x w.x X.d+x & I.' E+x } < X.S 1+q.x X.g.x S h x c+w.x S ~.F o 1.A ++& ",
"F.( q+n.d.{+*+I c+u.X.i.y X.c+( X.S.W Z.x ( Z.x j.E+x Z.} q.E+x & y x w.3+3+& x J h+J G+=+W < x E+x S y x S W x Z.f v.m+1.u.( S ",
"I N l.p.i t | x x l c+x >+x x >+S.x l I x l S x Z.e i.I } g.q.x S J x X.f 4.J x x Z.} S x w.c+S h x X.h x X.N x f.j.@ b B+u.l I ",
"  h a z+C.;+r & e l & e h e & B.& e l e & | r & e y N & w.| E+& q.|.& } y d+~.|.w.g.r ( } d+q.a+E+& g.B.& } N & e y t 1.`.a h S.",
"  ~ z `.d.v.' >.3+4.]+3+/ 3+]+n ]+3+4.3+>.;+;+>.I.@ L.>.]+;+n >./ 4.>.I.t o+{+' W.I.t @ I.#.n &.4.>.I.n >.n 4.>.]+t p.1.r+++w.  ",
"  X.,+1 }.k s  .0 =  .0 i 0  .=  .0 i 0  .- -+o+{.Q J.o+C.d.i  .i =  .C.#+h+y+= +.0 > k 0 x.i k i x.0 i  .i i  . .] m+z.1 ++X.  ",
"    N u.m+n.!.Q.Q.!.Q.Q.Q.Q.Q.!.Q.Q.Q.Q.Q.!.!.p+9 ]..+h+1.#+Q.Q.Q.!.Q.Y.Q ].Q !.Q.Q.!.!.Q.Q.Q.!.Q.Q.Q.!.Q.Q.Q.Q.Q.o B+5.l.~.    ",
"    e |+B M M M M M M M M M M M M M M M M M M M i+6.^ ].^ i+M :+:+i+Q .+.+6.N.M M M M M M M M M M M M M M M M M M M M G.|+g.    ",
"    I y+a.` ` ` ` ` ` ` ` ` ` ` ` ` ` ` ` ` ` @+,.^ ^ ^ .+6.^ O.N.^ .+^ ^ ^ N.` ` ` ` ` ` ` ` ` ` ` ` ` ` ` ` ` ` @+` a.B I     ",
"      U.,.P.m.d d d d d d d d d d d d d d d d m.P.c ^ ^ ^ 6.6.c c 6.^ ^ ^ c /.d d d d d d d d d d d d d d d d d d m.H.,.U.      ",
"      _+k+8.v+m.d d d d d d d d d d d d d d d m.P..+^ ^ 6.c N.M.A+6.c ^ ^ 6./.d d d d d d d d d d d d d d d d d d d 8.k+V.      ",
"        , ,.P.d v+v+v+v+v+v+v+v+v+v+v+v+v+v+v+d P.c ^ c ^ @+@.m.m.H.O.c 6.6./.v+v+v+v+v+v+v+v+v+v+v+v+v+v+v+v+v+m.P.,.#         ",
"        % !+O P v+).).).).).).).).).).).).).).d P.c 6.k+j+m.v+).).d V M.N.c /.).V ).).).).).).).).).).).).).).v+P n+)+_+        ",
"          6 ,.8 ).@.@.@.@.@.@.@.@.@.@.@.@.@.@.V P.N.P.V V @.@.@.@.@. +v+P A+O.@.@.@.@.@.@.@.@.@.@.@.@.@.@.@.@. +8 O.6           ",
"          1+# ,.!  +R R R R R R R R R R R R R R R R  +R R R R R R R R R @. +P R R R R R R R R R R R R R R R  +P.,.# =+          ",
"            % !+L j R g P P P P P P P P P P P P P P P P P P P P P P P P P P P P P P P P P P P P P P P P P R H.L !+_+            ",
"              '.L )+^+P g g g g g g g g g g g g g g g g g g g g g g g g g g g g g g g g g g g g g g g g P j+O L e               ",
"                o.,.n+j g U U U U U U U U U U U U U U U U U U U U U U U U U U U U U U U U U U U U U U U x+2+,.6                 ",
"                  6 ,.n+<.U Y Y Y Y Y Y Y Y Y Y Y Y Y Y Y Y Y Y Y Y Y Y Y Y Y Y Y Y Y Y Y Y Y Y Y Y U H.n+L Z                   ",
"                    Z ,.O ! Y ..................................................................x+Y ! O L Z                     ",
"                      o.L k+9+^+j j j j j j j j j j j j j j j j j j j j j j j j j j j j j j j ..j 9+L L 6                       ",
"                        '.b.,.8.! <.<.<.<.<.<.<.<.<.<.<.<.<.<.<.<.<.<.<.<.<.<.<.<.<.<.<.<.<.j ! 8.,.b.'.                        ",
"                          % # L L 8 _.<.:.:.:.:.:.:.:.:.:.:.:.:.:.:.:.:.:.:.:.:.:.:.:.<.<._.8 O ,.# _+                          ",
"                              o.b.,.O @+! _.:._._._._._._._._._._._._._._._._._._._.:.M.8 O L b.t.1+                            ",
"                                % 6 !+L O @+9+! _.:._._.! _.! _.! _.! _.! _._._.! 9+@+O ,.!+Z %                                 ",
"                                    % Z %.,.L O 8.@+9+M.! M.! ! ! ! ! M.M.9+8 ` O L L %.6 _+                                    ",
"                                        b+[+, %.L L L O n+2+2+8.8.8.2+n+O L L k+%., '.b+                                        ",
"                                              b+V.t., # %.!+)+k+k+)+b.%.# , t.V.b+                                              ",
"                                                  1+% [+t.o.Z Z , 6 6 '.[+% 1+                                                  "};
